<?xml version="1.0" standalone="no"?>
<!DOCTYPE svg PUBLIC "-//W3C//DTD SVG 20010904//EN"
 "http://www.w3.org/TR/2001/REC-SVG-20010904/DTD/svg10.dtd">
<svg version="1.0" xmlns="http://www.w3.org/2000/svg"
 width="162.000000pt" height="162.000000pt" viewBox="0 0 162.000000 162.000000"
 preserveAspectRatio="xMidYMid meet">
<metadata>
Created by potrace 1.14, written by Peter Selinger 2001-2017
</metadata>
<g transform="translate(0.000000,162.000000) scale(0.100000,-0.100000)"
fill="#000000" stroke="none">
<path d="M474 1306 c-20 -25 -33 -33 -51 -30 -18 4 -23 0 -24 -18 0 -13 -3
-17 -6 -10 -2 6 -14 12 -24 12 -12 0 -17 -4 -14 -11 4 -6 -2 -13 -13 -16 -11
-3 -18 -11 -16 -18 3 -7 -2 -15 -11 -19 -10 -3 -15 -12 -11 -21 3 -8 1 -15 -4
-15 -6 0 -10 -5 -10 -11 0 -6 6 -7 13 -2 6 4 4 -5 -6 -20 -15 -23 -15 -27 -2
-27 18 0 19 -14 5 -41 -8 -15 -7 -19 5 -19 8 0 15 -9 15 -20 0 -11 -5 -20 -11
-20 -5 0 -8 -4 -5 -9 3 -5 15 -7 26 -4 16 4 18 1 14 -23 -4 -24 -3 -26 11 -14
16 13 21 56 7 62 -5 2 -12 17 -16 33 -5 24 -4 26 4 12 6 -9 15 -15 20 -12 5 3
12 1 15 -5 4 -6 3 -10 -2 -9 -21 4 -25 -2 -11 -18 28 -31 32 -79 9 -102 -10
-10 -17 -21 -15 -24 3 -2 -11 -16 -29 -30 -48 -36 -67 -80 -55 -124 11 -39 1
-57 -24 -48 -23 9 -27 37 -13 76 7 19 23 60 35 92 21 57 21 59 4 107 -10 28
-22 46 -26 42 -16 -16 -16 -77 0 -104 15 -26 15 -31 -7 -80 -13 -29 -26 -65
-28 -79 -6 -32 12 -69 34 -69 15 0 15 -12 -1 -51 -5 -11 -1 -18 13 -22 12 -3
24 -1 27 4 3 5 -4 9 -15 9 -20 0 -20 1 -4 35 18 38 34 47 26 14 -6 -20 -4 -21
62 -14 51 6 69 4 75 -6 7 -10 11 -10 24 0 15 12 15 15 0 25 -9 7 -39 11 -67
10 l-52 -3 40 22 c48 27 66 68 43 94 -15 18 -14 43 2 43 19 0 101 56 106 72 6
21 37 24 51 6 9 -12 10 -74 2 -107 -2 -7 1 -15 7 -18 15 -5 24 30 24 95 0 49
-2 53 -32 68 -45 21 -47 56 -6 86 27 18 35 20 61 10 38 -14 46 -8 22 18 -21
24 -53 25 -101 5 -31 -13 -39 -13 -75 1 -26 11 -39 22 -39 35 0 10 -5 19 -11
19 -5 0 -7 -4 -4 -10 3 -5 1 -10 -4 -10 -6 0 -11 4 -11 9 0 5 -3 17 -7 27 -6
15 -1 16 52 10 51 -6 56 -5 45 9 -10 12 -10 15 4 15 9 0 16 7 16 15 0 8 -6 15
-14 15 -8 0 -27 10 -41 23 l-26 22 30 48 c36 55 33 61 -5 13z m-111 -90 c-10
-13 -20 -22 -22 -20 -4 4 29 44 36 44 2 0 -4 -11 -14 -24z m52 -145 c3 -5 2
-12 -3 -15 -5 -3 -9 1 -9 9 0 17 3 19 12 6z m116 -88 c13 -16 12 -17 -3 -4
-10 7 -18 15 -18 17 0 8 8 3 21 -13z m-253 -58 c-3 -3 -9 2 -12 12 -6 14 -5
15 5 6 7 -7 10 -15 7 -18z"/>
<path d="M1104 1318 c9 -16 24 -40 33 -55 10 -18 12 -23 3 -15 -18 16 -38 16
-22 0 19 -19 15 -27 -24 -43 -35 -14 -39 -34 -6 -36 11 0 12 -3 5 -6 -7 -2
-13 -9 -13 -14 0 -5 23 -6 54 -3 53 6 55 6 49 -15 -3 -13 -11 -20 -18 -17 -21
8 -26 -33 -5 -44 9 -5 21 -6 26 -2 5 4 6 3 2 -2 -4 -5 -2 -16 5 -25 6 -8 -4
-3 -23 11 -33 25 -37 26 -68 12 -29 -12 -38 -12 -69 1 -50 21 -76 19 -103 -10
-19 -20 -20 -25 -7 -25 9 0 19 5 22 10 19 31 98 -10 99 -53 1 -19 -6 -29 -30
-41 -34 -16 -44 -13 -44 13 0 26 15 42 33 35 9 -3 14 -10 11 -15 -3 -5 -10 -7
-15 -4 -5 4 -9 1 -9 -4 0 -13 27 -15 34 -2 11 17 -5 38 -42 55 -36 18 -37 18
-20 -1 15 -17 16 -21 3 -34 -12 -12 -12 -18 -2 -39 8 -14 14 -46 15 -70 2 -59
11 -100 22 -100 5 0 7 26 5 58 -1 31 2 63 7 70 16 18 46 14 53 -8 3 -10 31
-33 61 -51 42 -24 54 -35 48 -48 -24 -57 -15 -80 45 -111 l36 -18 -58 1 c-60
1 -95 -16 -67 -33 9 -5 19 -5 27 1 7 7 37 8 79 4 64 -7 66 -7 59 14 -10 31 0
26 23 -13 15 -25 17 -36 9 -40 -7 -2 -4 -5 6 -5 21 -1 22 8 1 37 -14 20 -14
23 3 29 46 17 53 53 23 119 -37 80 -39 88 -24 109 15 21 19 82 5 103 -5 9 -13
-1 -25 -32 -20 -52 -16 -82 20 -165 36 -80 29 -130 -15 -116 -17 5 -19 10 -11
25 24 46 3 109 -49 148 -18 13 -29 28 -25 34 4 7 3 8 -4 4 -17 -10 -33 29 -30
76 3 36 6 43 25 44 20 2 20 0 8 -13 -19 -18 -19 -24 -1 -49 10 -13 11 -23 4
-31 -7 -9 -7 -13 0 -13 14 0 21 22 15 53 -5 24 -2 27 20 27 14 0 29 4 32 10 3
6 -1 7 -9 4 -11 -4 -16 0 -16 15 0 12 5 21 10 21 6 0 8 11 4 26 -4 17 -2 29 7
34 10 7 10 11 0 24 -11 13 -11 16 0 16 10 0 10 3 1 12 -7 7 -12 20 -12 30 0
10 -5 18 -11 18 -6 0 -8 8 -4 19 5 18 3 19 -26 11 -31 -9 -31 -9 -14 10 17 19
17 20 -3 20 -11 0 -23 -6 -25 -12 -3 -7 -6 -3 -6 8 -1 16 -7 22 -28 22 -18 0
-36 11 -56 33 -25 29 -27 30 -13 7z m152 -268 c0 -11 -6 -20 -13 -20 -11 0
-11 5 -3 20 6 11 12 20 13 20 2 0 3 -9 3 -20z m-166 -54 c0 -2 -8 -10 -17 -17
-16 -13 -17 -12 -4 4 13 16 21 21 21 13z"/>
<path d="M465 1250 c-3 -5 -1 -10 4 -10 6 0 11 5 11 10 0 6 -2 10 -4 10 -3 0
-8 -4 -11 -10z"/>
<path d="M790 1240 c0 -5 5 -10 10 -10 6 0 10 5 10 10 0 6 -4 10 -10 10 -5 0
-10 -4 -10 -10z"/>
<path d="M730 1212 c-57 -19 -72 -64 -36 -111 10 -13 14 -28 18 -63 2 -13 8
-16 23 -11 26 9 94 9 121 0 19 -7 24 0 46 60 30 80 23 106 -29 124 -50 16 -96
16 -143 1z m58 -31 c6 -38 -7 -71 -27 -71 -20 0 -31 19 -31 54 0 46 52 62 58
17z m70 17 c26 -26 8 -88 -24 -88 -22 0 -37 65 -20 88 11 15 29 15 44 0z
m-142 -35 c0 -16 2 -33 5 -39 2 -7 0 -13 -6 -15 -13 -4 -30 44 -22 65 10 25
22 19 23 -11z m189 7 c8 -26 -2 -57 -21 -64 -13 -5 -14 -2 -8 11 4 10 8 30 8
46 1 32 12 36 21 7z m-95 -50 c0 -5 -4 -10 -10 -10 -5 0 -10 5 -10 10 0 6 5
10 10 10 6 0 10 -4 10 -10z m3 -35 c8 -18 -11 -31 -25 -17 -11 11 -3 32 12 32
4 0 10 -7 13 -15z m57 -11 c0 -8 -7 -14 -15 -14 -15 0 -21 21 -9 33 10 9 24
-2 24 -19z m-108 -2 c4 -16 1 -18 -21 -13 -22 4 -23 6 -6 9 l20 5 -20 8 c-19
7 -19 8 1 8 13 1 24 -6 26 -17z"/>
<path d="M594 1007 c-16 -14 -24 -29 -20 -35 9 -15 36 -16 36 -1 0 5 -4 8 -9
4 -5 -3 -12 -1 -15 4 -3 5 2 12 11 15 19 8 32 -9 34 -44 0 -23 1 -23 9 -5 5
13 3 28 -6 42 -12 19 -12 23 4 32 16 10 16 10 0 11 -9 0 -29 -11 -44 -23z"/>
<path d="M765 959 c-16 -16 -33 -29 -37 -29 -4 0 -14 -8 -24 -17 -9 -10 -23
-18 -31 -19 -36 -6 -44 -26 -41 -103 l3 -76 78 1 c72 0 94 -7 65 -20 -10 -5
-10 -7 0 -12 19 -9 14 -22 -10 -27 l-23 -4 24 -10 c16 -6 20 -12 13 -17 -22
-13 -12 -26 18 -26 30 0 40 13 19 26 -8 4 -3 12 12 20 l24 13 -22 1 c-25 0
-29 10 -11 28 9 9 8 12 -5 12 -9 0 -17 3 -17 8 0 4 37 7 82 7 l82 0 3 33 c2
18 -2 32 -8 32 -8 0 -8 4 -1 13 17 21 11 65 -14 88 -13 12 -27 20 -30 16 -5
-5 -42 23 -96 76 -10 9 -19 17 -20 16 -2 0 -16 -13 -33 -30z"/>
<path d="M705 940 c-3 -5 -1 -10 4 -10 6 0 11 5 11 10 0 6 -2 10 -4 10 -3 0
-8 -4 -11 -10z"/>
<path d="M350 920 c0 -5 5 -10 11 -10 5 0 7 5 4 10 -3 6 -8 10 -11 10 -2 0 -4
-4 -4 -10z"/>
<path d="M530 852 c0 -7 -7 -9 -17 -5 -16 6 -16 5 -4 -11 13 -16 15 -16 24 -1
5 9 6 19 3 22 -3 4 -6 1 -6 -5z"/>
<path d="M1061 843 c10 -12 11 -17 2 -20 -7 -2 -9 -11 -6 -19 6 -16 43 -19 43
-3 0 6 -7 9 -15 5 -8 -3 -15 -1 -15 4 0 6 5 10 10 10 6 0 10 7 10 16 0 8 -4
12 -10 9 -5 -3 -10 -1 -10 4 0 6 -5 11 -11 11 -8 0 -7 -6 2 -17z"/>
<path d="M523 816 c-26 -12 -30 -26 -9 -26 13 0 43 28 35 33 -2 2 -14 -2 -26
-7z"/>
<path d="M457 799 c4 -13 8 -18 11 -10 2 7 -1 18 -6 23 -8 8 -9 4 -5 -13z"/>
<path d="M500 771 c0 -17 29 -26 43 -12 6 6 7 14 2 18 -4 5 -10 2 -12 -5 -4
-10 -8 -10 -19 -1 -11 9 -14 9 -14 0z"/>
<path d="M1053 768 c5 -18 39 -16 45 2 5 13 3 13 -11 1 -11 -9 -17 -10 -17 -2
0 6 -5 11 -11 11 -6 0 -9 -6 -6 -12z"/>
<path d="M524 725 c24 -18 39 -19 34 -3 -2 6 -15 13 -29 14 -23 4 -23 3 -5
-11z"/>
<path d="M1045 731 c-8 -7 -6 -21 3 -21 5 0 17 6 28 14 18 14 18 15 -4 13 -13
-1 -25 -3 -27 -6z"/>
<path d="M1125 720 c3 -5 8 -10 11 -10 2 0 4 5 4 10 0 6 -5 10 -11 10 -5 0 -7
-4 -4 -10z"/>
<path d="M455 701 c-3 -5 -2 -12 3 -15 5 -3 9 1 9 9 0 17 -3 19 -12 6z"/>
<path d="M563 702 c-13 -2 -23 -8 -23 -13 0 -6 9 -7 22 -3 20 6 21 5 9 -10
-11 -14 -11 -16 2 -16 20 0 26 11 18 30 -3 9 -16 14 -28 12z"/>
<path d="M1003 688 c-9 -21 -8 -24 8 -25 20 -2 22 2 10 30 -6 17 -8 17 -18 -5z"/>
<path d="M1035 690 c3 -5 10 -10 16 -10 5 0 9 5 9 10 0 6 -7 10 -16 10 -8 0
-12 -4 -9 -10z"/>
<path d="M510 680 c0 -5 4 -10 8 -10 11 0 34 -49 28 -59 -3 -4 1 -8 9 -8 20 0
19 7 -10 50 -26 38 -35 45 -35 27z"/>
<path d="M606 666 c-20 -31 -20 -33 -1 -33 9 0 18 11 21 24 9 34 0 38 -20 9z"/>
<path d="M970 675 c0 -10 -5 -13 -12 -9 -8 5 -9 2 -5 -10 5 -12 2 -16 -10 -14
-11 2 -19 -5 -21 -17 -3 -16 -1 -18 9 -7 16 15 33 16 23 0 -4 -7 -3 -8 4 -4 7
4 12 14 12 23 0 13 3 13 15 3 9 -7 19 -10 23 -6 4 4 -1 12 -11 17 -9 6 -15 14
-12 19 3 5 1 11 -5 15 -5 3 -10 -1 -10 -10z"/>
<path d="M1051 646 c-25 -40 -26 -46 -5 -46 8 0 12 4 9 10 -7 11 12 51 29 62
8 6 8 8 -1 8 -6 0 -21 -15 -32 -34z"/>
<path d="M645 663 c3 -7 1 -13 -4 -13 -6 0 -11 -9 -11 -21 0 -11 5 -17 10 -14
6 4 8 10 5 15 -3 5 0 12 6 16 7 4 10 3 7 -2 -3 -5 0 -15 8 -22 22 -20 16 3 -7
29 -11 13 -18 18 -14 12z"/>
<path d="M310 605 c0 -7 30 -13 34 -7 3 4 -4 9 -15 9 -10 1 -19 0 -19 -2z"/>
<path d="M410 606 c0 -2 7 -7 16 -10 8 -3 12 -2 9 4 -6 10 -25 14 -25 6z"/>
<path d="M450 605 c0 -8 29 -12 39 -5 9 5 4 8 -13 8 -14 0 -26 -2 -26 -3z"/>
<path d="M510 599 c0 -5 5 -7 10 -4 6 3 10 8 10 11 0 2 -4 4 -10 4 -5 0 -10
-5 -10 -11z"/>
<path d="M1136 598 c3 -5 10 -6 15 -3 13 9 11 12 -6 12 -8 0 -12 -4 -9 -9z"/>
<path d="M1176 598 c3 -4 11 -5 19 -1 21 7 19 12 -4 10 -11 0 -18 -5 -15 -9z"/>
<path d="M1220 606 c0 -2 7 -6 15 -10 8 -3 15 -1 15 4 0 6 -7 10 -15 10 -8 0
-15 -2 -15 -4z"/>
<path d="M1278 603 c6 -2 18 -2 25 0 6 3 1 5 -13 5 -14 0 -19 -2 -12 -5z"/>
<path d="M676 578 c3 -4 6 -26 6 -48 0 -22 4 -40 9 -40 5 0 9 21 9 46 0 37 3
45 15 40 8 -3 15 -1 15 4 0 5 -13 8 -30 8 -16 -1 -27 -5 -24 -10z"/>
<path d="M760 590 c-6 -14 -4 -93 3 -97 4 -2 7 7 7 21 0 14 6 26 13 26 8 0 9
2 1 8 -7 4 -14 16 -17 27 -2 11 -6 18 -7 15z"/>
<path d="M826 582 c-8 -14 -4 -92 5 -92 5 0 9 23 9 50 0 48 -3 59 -14 42z"/>
<path d="M880 560 c-6 -42 -2 -70 10 -70 5 0 7 7 3 16 -4 11 1 23 13 32 15 12
16 14 2 9 -13 -4 -18 1 -20 21 -3 24 -4 23 -8 -8z"/>
<path d="M905 580 c3 -5 8 -10 11 -10 2 0 4 5 4 10 0 6 -5 10 -11 10 -5 0 -7
-4 -4 -10z"/>
<path d="M37 448 c6 -7 23 -53 37 -101 15 -48 31 -85 36 -82 4 3 19 34 32 70
12 36 25 65 28 65 3 0 16 -31 29 -70 13 -38 27 -70 31 -70 3 0 19 38 34 85 16
47 33 88 37 91 14 8 0 24 -15 18 -7 -3 -13 -10 -13 -17 0 -20 -34 -130 -38
-125 -3 2 -15 32 -28 67 -13 34 -28 62 -32 62 -5 1 -20 -28 -33 -63 -13 -34
-25 -64 -27 -66 -3 -3 -35 100 -39 127 -2 8 -13 16 -26 18 -17 2 -20 0 -13 -9z"/>
<path d="M357 360 l2 -95 47 0 c31 0 49 5 52 13 3 11 0 12 -16 3 -21 -11 -51
-6 -53 10 -1 5 -1 16 -1 24 0 45 1 48 32 42 17 -4 30 -2 30 3 0 5 -14 10 -32
12 -28 3 -32 7 -33 36 -2 33 0 34 32 30 19 -2 33 0 33 7 0 6 -20 11 -47 11
l-48 0 2 -96z"/>
<path d="M517 442 c-25 -28 -21 -39 28 -88 39 -38 44 -47 35 -64 -13 -24 -43
-26 -64 -5 -20 20 -25 19 -19 -5 8 -30 76 -28 97 2 24 34 20 47 -31 93 -39 36
-45 46 -34 58 12 15 39 15 62 1 7 -4 10 -1 7 7 -7 22 -61 23 -81 1z"/>
<path d="M645 452 c-13 -13 -2 -17 33 -14 l38 4 -2 -91 c-2 -79 0 -91 14 -91
15 0 17 11 14 91 l-3 91 35 -4 c22 -2 36 0 36 7 0 11 -154 17 -165 7z"/>
<path d="M857 447 c9 -14 10 -125 2 -158 -6 -24 -4 -25 37 -28 36 -1 49 3 69
23 22 23 24 29 14 48 -7 13 -19 28 -27 34 -11 8 -12 13 -4 18 15 9 15 53 1 62
-20 12 -100 13 -92 1z m79 -29 c6 -22 -7 -40 -31 -44 -18 -3 -23 25 -10 63 6
18 33 5 41 -19z m9 -82 c18 -27 11 -53 -16 -61 -29 -9 -39 2 -39 46 0 32 3 39
20 39 11 0 26 -11 35 -24z"/>
<path d="M1025 447 c3 -6 7 -43 9 -82 5 -80 24 -105 82 -105 49 0 74 31 75 94
0 28 2 62 4 76 2 19 -1 26 -13 26 -15 0 -17 -11 -13 -77 3 -71 1 -78 -20 -93
-31 -21 -45 -20 -70 5 -17 17 -20 31 -18 91 2 66 1 72 -19 75 -14 2 -20 -2
-17 -10z"/>
<path d="M1258 446 c10 -15 10 -147 1 -167 -7 -13 -2 -16 24 -16 18 -1 26 1
20 4 -7 3 -13 20 -13 39 0 46 28 46 67 -1 16 -20 41 -36 58 -40 26 -5 27 -4
10 6 -11 6 -33 27 -49 45 -27 32 -27 36 -12 53 20 22 21 55 0 72 -20 17 -117
22 -106 5z m94 -34 c7 -26 -13 -57 -37 -57 -16 0 -21 8 -23 39 -4 43 11 60 39
46 9 -5 19 -18 21 -28z"/>
<path d="M1420 455 c0 -2 16 -27 36 -56 29 -44 35 -61 32 -95 -3 -37 -1 -42
19 -42 13 0 20 5 17 10 -22 35 20 151 64 177 15 9 14 10 -6 8 -14 -2 -30 -17
-43 -43 -31 -58 -33 -58 -60 -7 -14 27 -33 49 -42 49 -9 1 -17 0 -17 -1z"/>
</g>
</svg>
